<svg width="179" height="166" viewBox="0 0 179 166" fill="none" xmlns="http://www.w3.org/2000/svg">
<rect width="179" height="166" rx="20" fill="white"/>
<rect x="14" y="14.5234" width="151" height="134" fill="#666666"/>
<rect x="13.7797" y="14.9922" width="48.9388" height="43.1525" fill="#EDF5F1"/>
<rect x="65.0306" y="14.9922" width="48.9388" height="43.1525" fill="#EDF5F1"/>
<rect x="116.281" y="14.9922" width="48.9388" height="43.1525" fill="#EDF5F1"/>
<rect x="13.7797" y="60.4159" width="48.9388" height="43.1525" fill="#EDF5F1"/>
<rect x="65.0306" y="60.4159" width="48.9388" height="43.1525" fill="#EDF5F1"/>
<rect x="116.281" y="60.4159" width="48.9388" height="43.1525" fill="#EDF5F1"/>
<rect x="13.7797" y="105.84" width="48.9388" height="43.1525" fill="#EDF5F1"/>
<rect x="65.0306" y="105.84" width="48.9388" height="43.1525" fill="#EDF5F1"/>
<rect x="116.281" y="105.84" width="48.9388" height="43.1525" fill="#EDF5F1"/>
<rect width="151" height="32" transform="translate(14.2203 119.477)" fill="#696969"/>
<path d="M42.0803 141.973H42.9763V147.477H27.9363V146.677L38.3043 126.837H32.0963C31.6057 126.837 31.243 126.858 31.0083 126.901C30.795 126.922 30.6563 126.997 30.5923 127.125C30.5283 127.231 30.4537 127.413 30.3683 127.669L29.3443 131.221H28.4483V125.717H42.6563V126.517L32.2883 146.357H39.3283C39.8403 146.357 40.203 146.346 40.4163 146.325C40.6297 146.282 40.7683 146.207 40.8323 146.101C40.9177 145.973 40.9923 145.781 41.0563 145.525L42.0803 141.973ZM58.9411 126.613V125.717H65.1491V126.613L63.3891 126.837C63.0478 126.879 62.8451 126.975 62.7811 127.125C62.7171 127.253 62.6851 127.679 62.6851 128.405V140.085C62.6851 142.645 62.1411 144.575 61.0531 145.877C59.9864 147.157 58.3438 147.797 56.1251 147.797C53.5438 147.797 51.4638 147.093 49.8851 145.685C48.3064 144.277 47.5171 142.25 47.5171 139.605V128.405C47.5171 127.679 47.4851 127.253 47.4211 127.125C47.3571 126.975 47.1544 126.879 46.8131 126.837L45.0531 126.613V125.717H53.8211V126.613L52.0611 126.837C51.7198 126.879 51.5171 126.975 51.4531 127.125C51.3891 127.253 51.3571 127.679 51.3571 128.405V139.829C51.3571 142.218 51.7944 143.946 52.6691 145.013C53.5438 146.079 54.7918 146.613 56.4131 146.613C57.9918 146.613 59.2184 146.111 60.0931 145.109C60.9678 144.085 61.4051 142.431 61.4051 140.149V128.405C61.4051 127.679 61.3731 127.253 61.3091 127.125C61.2451 126.975 61.0424 126.879 60.7011 126.837L58.9411 126.613ZM67.4401 126.613V125.717H76.8801C79.6108 125.717 81.7014 126.517 83.1521 128.117C84.6241 129.717 85.3601 132.202 85.3601 135.573V137.589C85.3601 140.959 84.6241 143.455 83.1521 145.077C81.7014 146.677 79.6108 147.477 76.8801 147.477H67.4401V146.581L69.2001 146.357C69.5414 146.314 69.7441 146.229 69.8081 146.101C69.8721 145.951 69.9041 145.514 69.9041 144.789V128.405C69.9041 127.679 69.8721 127.253 69.8081 127.125C69.7441 126.975 69.5414 126.879 69.2001 126.837L67.4401 126.613ZM76.7201 126.837H73.7441V146.357H76.7201C77.8081 146.357 78.6828 146.175 79.3441 145.813C80.0054 145.429 80.4854 144.725 80.7841 143.701C81.1041 142.655 81.2641 141.151 81.2641 139.189V133.973C81.2641 132.01 81.1041 130.517 80.7841 129.493C80.4854 128.469 80.0054 127.775 79.3441 127.413C78.6828 127.029 77.8081 126.837 76.7201 126.837ZM106.926 135.573V137.589C106.926 140.874 106.19 143.402 104.718 145.173C103.268 146.922 101.113 147.797 98.2543 147.797C95.3957 147.797 93.2303 146.922 91.7583 145.173C90.3077 143.402 89.5823 140.874 89.5823 137.589V135.573C89.5823 132.287 90.3077 129.77 91.7583 128.021C93.2303 126.271 95.3957 125.397 98.2543 125.397C101.113 125.397 103.268 126.271 104.718 128.021C106.19 129.77 106.926 132.287 106.926 135.573ZM102.83 133.973C102.83 132.095 102.67 130.623 102.35 129.557C102.03 128.469 101.529 127.69 100.846 127.221C100.185 126.751 99.321 126.517 98.2543 126.517C97.209 126.517 96.345 126.751 95.6623 127.221C94.9797 127.69 94.4783 128.469 94.1583 129.557C93.8383 130.623 93.6783 132.095 93.6783 133.973V139.189C93.6783 141.045 93.8383 142.517 94.1583 143.605C94.4783 144.693 94.9797 145.482 95.6623 145.973C96.345 146.442 97.209 146.677 98.2543 146.677C99.321 146.677 100.185 146.442 100.846 145.973C101.529 145.482 102.03 144.693 102.35 143.605C102.67 142.517 102.83 141.045 102.83 139.189V133.973ZM110.409 126.613V125.717H119.177V126.613L117.417 126.837C117.076 126.879 116.873 126.975 116.809 127.125C116.745 127.253 116.713 127.679 116.713 128.405V137.013L124.297 128.405C124.916 127.701 125.236 127.274 125.257 127.125C125.3 126.975 125.15 126.879 124.809 126.837L123.049 126.613V125.717H129.545V126.613L127.785 126.837C127.572 126.858 127.401 126.901 127.273 126.965C127.145 127.029 126.985 127.167 126.793 127.381C126.601 127.594 126.292 127.935 125.865 128.405L121.385 133.461L126.921 144.789C127.156 145.237 127.337 145.567 127.465 145.781C127.593 145.994 127.742 146.133 127.913 146.197C128.084 146.261 128.318 146.314 128.617 146.357L130.057 146.581V147.477H123.977L118.793 136.405L116.713 138.773V144.789C116.713 145.514 116.745 145.951 116.809 146.101C116.873 146.229 117.076 146.314 117.417 146.357L119.177 146.581V147.477H110.409V146.581L112.169 146.357C112.51 146.314 112.713 146.229 112.777 146.101C112.841 145.951 112.873 145.514 112.873 144.789V128.405C112.873 127.679 112.841 127.253 112.777 127.125C112.713 126.975 112.51 126.879 112.169 126.837L110.409 126.613ZM144.785 126.613V125.717H150.993V126.613L149.233 126.837C148.892 126.879 148.689 126.975 148.625 127.125C148.561 127.253 148.529 127.679 148.529 128.405V140.085C148.529 142.645 147.985 144.575 146.897 145.877C145.83 147.157 144.188 147.797 141.969 147.797C139.388 147.797 137.308 147.093 135.729 145.685C134.15 144.277 133.361 142.25 133.361 139.605V128.405C133.361 127.679 133.329 127.253 133.265 127.125C133.201 126.975 132.998 126.879 132.657 126.837L130.897 126.613V125.717H139.665V126.613L137.905 126.837C137.564 126.879 137.361 126.975 137.297 127.125C137.233 127.253 137.201 127.679 137.201 128.405V139.829C137.201 142.218 137.638 143.946 138.513 145.013C139.388 146.079 140.636 146.613 142.257 146.613C143.836 146.613 145.062 146.111 145.937 145.109C146.812 144.085 147.249 142.431 147.249 140.149V128.405C147.249 127.679 147.217 127.253 147.153 127.125C147.089 126.975 146.886 126.879 146.545 126.837L144.785 126.613Z" fill="white"/>
<path d="M33.2643 30.088L37.7123 27.24H40.7843V46.312C40.7843 47.0373 40.8163 47.4747 40.8802 47.624C40.9443 47.752 41.1469 47.8373 41.4883 47.88L43.2483 48.104V49H33.8403V48.104L36.2403 47.88C36.5816 47.8373 36.7843 47.752 36.8483 47.624C36.9123 47.4747 36.9443 47.0373 36.9443 46.312V29.096L33.8723 31.048L33.2643 30.088Z" fill="#393939"/>
<path d="M95.0488 42.928H95.9448V50H82.5368V47.76C82.5368 46.4373 82.7394 45.328 83.1448 44.432C83.5714 43.5147 84.1368 42.7253 84.8408 42.064C85.5448 41.4027 86.3021 40.816 87.1128 40.304C87.9021 39.7707 88.6808 39.2267 89.4488 38.672C90.2381 38.096 90.8888 37.4027 91.4008 36.592C91.9128 35.76 92.1688 34.704 92.1688 33.424C92.1688 30.5013 91.1981 29.04 89.2568 29.04C88.0621 29.04 87.2194 29.5627 86.7288 30.608C86.2594 31.6533 86.1314 33.136 86.3448 35.056L82.5048 34.544C82.3128 33.392 82.4194 32.3147 82.8248 31.312C83.2514 30.3093 83.9981 29.4987 85.0648 28.88C86.1528 28.24 87.5608 27.92 89.2888 27.92C90.9741 27.92 92.3288 28.1973 93.3528 28.752C94.3768 29.2853 95.1234 30 95.5928 30.896C96.0834 31.7707 96.3288 32.72 96.3288 33.744C96.3288 35.0027 96.0728 36.0373 95.5608 36.848C95.0488 37.6587 94.3768 38.3307 93.5448 38.864C92.7128 39.376 91.8168 39.824 90.8568 40.208C89.8968 40.5707 88.9688 40.9653 88.0728 41.392C86.9848 41.8827 86.0568 42.544 85.2888 43.376C84.5208 44.1867 84.0514 45.2853 83.8808 46.672H92.6168C93.1288 46.672 93.4914 46.6613 93.7048 46.64C93.9181 46.5973 94.0568 46.5227 94.1208 46.416C94.2061 46.288 94.2808 46.096 94.3448 45.84L95.0488 42.928Z" fill="#393939"/>
<path d="M138.813 39.408H137.949V38.288H138.813C140.328 38.288 141.394 37.84 142.013 36.944C142.653 36.048 142.973 34.896 142.973 33.488C142.973 30.5227 142.002 29.04 140.061 29.04C138.866 29.04 138.024 29.5627 137.533 30.608C137.064 31.6533 136.936 33.136 137.149 35.056L133.309 34.544C133.117 33.392 133.224 32.3147 133.629 31.312C134.056 30.3093 134.802 29.4987 135.869 28.88C136.957 28.24 138.365 27.92 140.093 27.92C141.778 27.92 143.133 28.1867 144.157 28.72C145.181 29.232 145.928 29.9147 146.397 30.768C146.888 31.6 147.133 32.5067 147.133 33.488C147.133 34.9813 146.621 36.1867 145.597 37.104C144.573 38 143.112 38.576 141.213 38.832C143.197 39.088 144.712 39.6853 145.757 40.624C146.824 41.5627 147.357 42.8747 147.357 44.56C147.357 46.2453 146.717 47.632 145.437 48.72C144.157 49.7867 142.248 50.32 139.709 50.32C138.024 50.32 136.584 49.936 135.389 49.168C134.216 48.3787 133.469 47.0773 133.149 45.264L135.421 44.656C135.634 46.2773 136.082 47.44 136.765 48.144C137.469 48.848 138.354 49.2 139.421 49.2C140.744 49.2 141.704 48.816 142.301 48.048C142.898 47.2587 143.197 46.096 143.197 44.56C143.197 43.0453 142.866 41.808 142.205 40.848C141.544 39.888 140.413 39.408 138.813 39.408Z" fill="#393939"/>
</svg>
