<svg width="196" height="196" viewBox="0 0 196 196" fill="none" xmlns="http://www.w3.org/2000/svg">
<g clip-path="url(#clip0_7_2)">
<rect x="31.6393" y="33" width="131.304" height="113.283" fill="#666666"/>
<rect x="31.4477" y="33.3961" width="42.5555" height="36.481" fill="#EDF5F1"/>
<rect x="76.0139" y="33.3962" width="42.5555" height="36.481" fill="#EDF5F1"/>
<rect x="120.58" y="33.3962" width="42.5555" height="36.481" fill="#EDF5F1"/>
<rect x="31.4477" y="71.7971" width="42.5555" height="36.481" fill="#EDF5F1"/>
<rect x="76.0139" y="71.7971" width="42.5555" height="36.481" fill="#EDF5F1"/>
<rect x="120.58" y="71.7971" width="42.5555" height="36.481" fill="#EDF5F1"/>
<rect x="31.4477" y="110.198" width="42.5555" height="36.481" fill="#EDF5F1"/>
<rect x="76.0139" y="110.198" width="42.5555" height="36.481" fill="#EDF5F1"/>
<rect x="120.58" y="110.198" width="42.5555" height="36.481" fill="#EDF5F1"/>
<rect width="131.304" height="27.0527" transform="translate(32.029 136.424)" fill="#696969"/>
<path d="M73.5212 153.141H73.9785V155.951H66.3018V155.542L71.5938 145.416H68.4252C68.1747 145.416 67.9896 145.427 67.8698 145.448C67.7609 145.459 67.6902 145.497 67.6575 145.563C67.6248 145.617 67.5867 145.71 67.5432 145.84L67.0205 147.653H66.5632V144.844H73.8152V145.252L68.5232 155.379H72.1165C72.3778 155.379 72.5629 155.374 72.6718 155.363C72.7807 155.341 72.8515 155.303 72.8842 155.248C72.9277 155.183 72.9658 155.085 72.9985 154.954L73.5212 153.141ZM82.1272 145.301V144.844H85.2958V145.301L84.3975 145.416C84.2233 145.438 84.1198 145.487 84.0872 145.563C84.0545 145.628 84.0382 145.846 84.0382 146.216V152.178C84.0382 153.484 83.7605 154.47 83.2052 155.134C82.6607 155.787 81.8223 156.114 80.6898 156.114C79.3723 156.114 78.3106 155.755 77.5048 155.036C76.699 154.317 76.2962 153.283 76.2962 151.933V146.216C76.2962 145.846 76.2798 145.628 76.2472 145.563C76.2145 145.487 76.111 145.438 75.9368 145.416L75.0385 145.301V144.844H79.5138V145.301L78.6155 145.416C78.4413 145.438 78.3378 145.487 78.3052 145.563C78.2725 145.628 78.2562 145.846 78.2562 146.216V152.047C78.2562 153.267 78.4794 154.149 78.9258 154.693C79.3723 155.238 80.0093 155.51 80.8368 155.51C81.6426 155.51 82.2687 155.254 82.7152 154.742C83.1616 154.219 83.3848 153.376 83.3848 152.21V146.216C83.3848 145.846 83.3685 145.628 83.3358 145.563C83.3032 145.487 83.1997 145.438 83.0255 145.416L82.1272 145.301ZM86.4652 145.301V144.844H91.2835C92.6773 144.844 93.7444 145.252 94.4849 146.069C95.2362 146.886 95.6119 148.154 95.6119 149.875V150.904C95.6119 152.624 95.2362 153.898 94.4849 154.726C93.7444 155.542 92.6773 155.951 91.2835 155.951H86.4652V155.493L87.3635 155.379C87.5377 155.357 87.6412 155.314 87.6739 155.248C87.7065 155.172 87.7229 154.949 87.7229 154.579V146.216C87.7229 145.846 87.7065 145.628 87.6739 145.563C87.6412 145.487 87.5377 145.438 87.3635 145.416L86.4652 145.301ZM91.2019 145.416H89.6829V155.379H91.2019C91.7572 155.379 92.2036 155.287 92.5412 155.101C92.8787 154.905 93.1237 154.546 93.2762 154.023C93.4395 153.49 93.5212 152.722 93.5212 151.72V149.058C93.5212 148.056 93.4395 147.294 93.2762 146.771C93.1237 146.249 92.8787 145.895 92.5412 145.71C92.2036 145.514 91.7572 145.416 91.2019 145.416ZM106.62 149.875V150.904C106.62 152.581 106.244 153.871 105.493 154.775C104.752 155.668 103.652 156.114 102.193 156.114C100.734 156.114 99.629 155.668 98.8776 154.775C98.1372 153.871 97.767 152.581 97.767 150.904V149.875C97.767 148.198 98.1372 146.913 98.8776 146.02C99.629 145.127 100.734 144.681 102.193 144.681C103.652 144.681 104.752 145.127 105.493 146.02C106.244 146.913 106.62 148.198 106.62 149.875ZM104.529 149.058C104.529 148.1 104.447 147.349 104.284 146.804C104.121 146.249 103.865 145.851 103.516 145.612C103.179 145.372 102.738 145.252 102.193 145.252C101.66 145.252 101.219 145.372 100.87 145.612C100.522 145.851 100.266 146.249 100.103 146.804C99.9393 147.349 99.8576 148.1 99.8576 149.058V151.72C99.8576 152.668 99.9393 153.419 100.103 153.974C100.266 154.53 100.522 154.933 100.87 155.183C101.219 155.423 101.66 155.542 102.193 155.542C102.738 155.542 103.179 155.423 103.516 155.183C103.865 154.933 104.121 154.53 104.284 153.974C104.447 153.419 104.529 152.668 104.529 151.72V149.058ZM108.397 145.301V144.844H112.872V145.301L111.974 145.416C111.8 145.438 111.696 145.487 111.664 145.563C111.631 145.628 111.615 145.846 111.615 146.216V150.61L115.486 146.216C115.802 145.857 115.965 145.639 115.976 145.563C115.998 145.487 115.921 145.438 115.747 145.416L114.849 145.301V144.844H118.164V145.301L117.266 145.416C117.157 145.427 117.07 145.448 117.005 145.481C116.939 145.514 116.858 145.585 116.76 145.693C116.662 145.802 116.504 145.977 116.286 146.216L113.999 148.797L116.825 154.579C116.945 154.807 117.037 154.976 117.103 155.085C117.168 155.194 117.244 155.265 117.331 155.297C117.419 155.33 117.538 155.357 117.691 155.379L118.426 155.493V155.951H115.322L112.676 150.299L111.615 151.508V154.579C111.615 154.949 111.631 155.172 111.664 155.248C111.696 155.314 111.8 155.357 111.974 155.379L112.872 155.493V155.951H108.397V155.493L109.295 155.379C109.47 155.357 109.573 155.314 109.606 155.248C109.638 155.172 109.655 154.949 109.655 154.579V146.216C109.655 145.846 109.638 145.628 109.606 145.563C109.573 145.487 109.47 145.438 109.295 145.416L108.397 145.301ZM125.943 145.301V144.844H129.112V145.301L128.214 145.416C128.039 145.438 127.936 145.487 127.903 145.563C127.871 145.628 127.854 145.846 127.854 146.216V152.178C127.854 153.484 127.577 154.47 127.021 155.134C126.477 155.787 125.638 156.114 124.506 156.114C123.188 156.114 122.127 155.755 121.321 155.036C120.515 154.317 120.112 153.283 120.112 151.933V146.216C120.112 145.846 120.096 145.628 120.063 145.563C120.031 145.487 119.927 145.438 119.753 145.416L118.855 145.301V144.844H123.33V145.301L122.432 145.416C122.257 145.438 122.154 145.487 122.121 145.563C122.089 145.628 122.072 145.846 122.072 146.216V152.047C122.072 153.267 122.295 154.149 122.742 154.693C123.188 155.238 123.825 155.51 124.653 155.51C125.459 155.51 126.085 155.254 126.531 154.742C126.978 154.219 127.201 153.376 127.201 152.21V146.216C127.201 145.846 127.185 145.628 127.152 145.563C127.119 145.487 127.016 145.438 126.842 145.416L125.943 145.301Z" fill="white"/>
<path d="M50.3994 47.3974L54.1087 45.0224H56.6705V60.9269C56.6705 61.5317 56.6972 61.8965 56.7505 62.021C56.8039 62.1277 56.9729 62.1989 57.2576 62.2345L58.7253 62.4213V63.1685H50.8797V62.4213L52.8812 62.2345C53.1658 62.1989 53.3348 62.1277 53.3882 62.021C53.4416 61.8965 53.4682 61.5317 53.4682 60.9269V46.5701L50.9064 48.1979L50.3994 47.3974Z" fill="#393939"/>
<path d="M101.923 58.1048H102.67V64.0023H91.4887V62.1343C91.4887 61.0313 91.6577 60.1062 91.9957 59.3591C92.3515 58.5941 92.823 57.9358 93.41 57.3843C93.9971 56.8328 94.6287 56.3436 95.3047 55.9166C95.9629 55.4719 96.6123 55.0182 97.2527 54.5557C97.911 54.0753 98.4536 53.4971 98.8806 52.8211C99.3075 52.1273 99.521 51.2467 99.521 50.1793C99.521 47.742 98.7116 46.5234 97.0926 46.5234C96.0964 46.5234 95.3937 46.9592 94.9845 47.8309C94.5931 48.7027 94.4864 49.9391 94.6643 51.5402L91.462 51.1132C91.3019 50.1526 91.3908 49.2542 91.7289 48.418C92.0847 47.5819 92.7073 46.9058 93.5968 46.3899C94.5041 45.8562 95.6783 45.5894 97.1193 45.5894C98.5248 45.5894 99.6544 45.8206 100.508 46.2832C101.362 46.7279 101.985 47.3239 102.376 48.0711C102.786 48.8005 102.99 49.5922 102.99 50.4461C102.99 51.4957 102.777 52.3586 102.35 53.0346C101.923 53.7106 101.362 54.271 100.668 54.7158C99.9747 55.1428 99.2275 55.5163 98.4269 55.8366C97.6263 56.139 96.8525 56.4681 96.1053 56.8239C95.198 57.2331 94.4241 57.7846 93.7836 58.4784C93.1432 59.1545 92.7518 60.0707 92.6095 61.227H99.8946C100.322 61.227 100.624 61.2181 100.802 61.2003C100.98 61.1648 101.095 61.1025 101.149 61.0135C101.22 60.9068 101.282 60.7467 101.336 60.5332L101.923 58.1048Z" fill="#393939"/>
<path d="M138.419 55.3356H137.698V54.4016H138.419C139.682 54.4016 140.571 54.028 141.087 53.2808C141.621 52.5336 141.888 51.5729 141.888 50.3988C141.888 47.9259 141.078 46.6895 139.459 46.6895C138.463 46.6895 137.76 47.1254 137.351 47.9971C136.96 48.8688 136.853 50.1052 137.031 51.7064L133.829 51.2794C133.669 50.3187 133.758 49.4203 134.096 48.5842C134.451 47.748 135.074 47.072 135.964 46.5561C136.871 46.0224 138.045 45.7555 139.486 45.7555C140.891 45.7555 142.021 45.9779 142.875 46.4226C143.729 46.8496 144.352 47.4189 144.743 48.1305C145.152 48.8243 145.357 49.5804 145.357 50.3988C145.357 51.6441 144.93 52.6492 144.076 53.4142C143.222 54.1614 142.003 54.6418 140.42 54.8552C142.075 55.0687 143.338 55.5668 144.209 56.3496C145.099 57.1324 145.544 58.2265 145.544 59.6319C145.544 61.0374 145.01 62.1937 143.943 63.101C142.875 63.9906 141.283 64.4353 139.166 64.4353C137.76 64.4353 136.56 64.1151 135.563 63.4746C134.585 62.8164 133.962 61.7312 133.695 60.219L135.59 59.712C135.768 61.064 136.141 62.0336 136.711 62.6207C137.298 63.2078 138.036 63.5013 138.926 63.5013C140.029 63.5013 140.829 63.1811 141.327 62.5406C141.825 61.8824 142.075 60.9128 142.075 59.6319C142.075 58.3688 141.799 57.337 141.247 56.5364C140.696 55.7359 139.753 55.3356 138.419 55.3356Z" fill="#393939"/>
</g>
<defs>
<clipPath id="clip0_7_2">
<rect x="32.6667" y="32.6666" width="130.667" height="130.667" rx="24.5" fill="white"/>
</clipPath>
</defs>
</svg>
